<?xml version="1.0" encoding="utf-8"?>
<!-- Generator: Adobe Illustrator 25.1.0, SVG Export Plug-In . SVG Version: 6.00 Build 0)  -->
<svg version="1.1" id="Capa_1" xmlns="http://www.w3.org/2000/svg" xmlns:xlink="http://www.w3.org/1999/xlink" x="0px" y="0px"
	 viewBox="0 0 90 91.8" style="enable-background:new 0 0 90 91.8;" xml:space="preserve">
<style type="text/css">
	.st0{fill:#4280EF;}
	.st1{fill:#34A353;}
	.st2{fill:#F6B704;}
	.st3{fill:#E54335;}
</style>
<g>
	<path class="st0" d="M90,47c0-3.1-0.3-6.3-0.8-9.3H45.9v17.7h24.8c-1,5.7-4.3,10.7-9.2,13.9l14.8,11.5C85,72.7,90,60.9,90,47L90,47
		z"/>
	<path class="st1" d="M45.9,91.8c12.4,0,22.8-4.1,30.4-11.1L61.5,69.3c-4.1,2.8-9.4,4.4-15.6,4.4c-12,0-22.1-8.1-25.8-18.9L4.9,66.5
		C12.7,82,28.5,91.8,45.9,91.8z"/>
	<path class="st2" d="M20.1,54.7c-1.9-5.7-1.9-11.9,0-17.6L4.9,25.3c-6.5,13-6.5,28.3,0,41.2L20.1,54.7z"/>
	<path class="st3" d="M45.9,18.2c6.5-0.1,12.9,2.4,17.6,6.9l13.1-13.2C68.3,4.1,57.3-0.1,45.9,0c-17.4,0-33.2,9.8-41,25.3l15.2,11.8
		C23.8,26.2,33.9,18.2,45.9,18.2z"/>
</g>
</svg>
