<?xml version="1.0" encoding="utf-8"?>
<!-- Generator: Adobe Illustrator 25.1.0, SVG Export Plug-In . SVG Version: 6.00 Build 0)  -->
<svg version="1.1" id="Layer_1" xmlns="http://www.w3.org/2000/svg" xmlns:xlink="http://www.w3.org/1999/xlink" x="0px" y="0px"
	 viewBox="0 0 1265.9 98.3" style="enable-background:new 0 0 1265.9 98.3;" xml:space="preserve">
<style type="text/css">
	.st0{fill:#FFFFFF;}
</style>
<path class="st0" d="M21.4,16.3L65,95.5l50.4,0l42.8-79.2l21.5,0V2h-64.6v14.3h18.6L102.6,74L71,16.3l22.7,0l0-14.3H0l0,14.4H21.4
	 M576.5,16.3l0-14.3l86.4,0v14.3h-21.5v64.6h19.9c18.5,0,30.6-12.2,30.6-28.8h14.3v43.3l-129.7,0V80.9h21.8l0-64.6L576.5,16.3
	 M366.6,83.4c-15.8-0.3-22.8-17.8-22.5-35.2c0.3-18,8.9-33.7,23.8-33.5C382.7,15,390.5,31,390.2,49C389.9,66,382.9,83.7,366.6,83.4
	 M367.1,0c-43.4,0-66.4,21.6-66.4,48.8c0,27.5,22.2,49.5,66.7,49.5c44.5,0,66.4-21.9,66.4-49.5C433.7,21.6,410.5,0,367.1,0
	 M853.6,16.3l43.6,79.2l50.4,0l42.8-79.2l21.5,0V2h-64.6v14.3h18.6L934.8,74l-31.6-57.6l22.7,0l0-14.3h-93.7l0,14.4L853.6,16.3
	 M1198.7,83.4c-15.8-0.3-22.8-17.8-22.5-35.2c0.3-18,8.9-33.7,23.8-33.5c14.8,0.3,22.7,16.3,22.4,34.3
	C1222.1,66,1215,83.7,1198.7,83.4 M1199.2,0c-43.4,0-66.4,21.6-66.4,48.8c0,27.5,22.2,49.5,66.7,49.5c44.5,0,66.4-21.9,66.4-49.5
	C1265.9,21.6,1242.6,0,1199.2,0"/>
</svg>
